<svg width="129" height="129" xmlns="http://www.w3.org/2000/svg" xmlns:xlink="http://www.w3.org/1999/xlink" xml:space="preserve" overflow="hidden"><defs><clipPath id="clip0"><rect x="497" y="475" width="129" height="129"/></clipPath></defs><g clip-path="url(#clip0)" transform="translate(-497 -475)"><path d="M561.5 534.125C554.781 534.125 549.406 528.75 549.406 522.031 549.406 515.312 554.781 509.938 561.5 509.938 568.219 509.938 573.594 515.312 573.594 522.031 573.594 528.75 568.219 534.125 561.5 534.125ZM561.5 493.812C552.228 493.812 543.494 498.381 538.253 506.175 533.013 513.834 531.938 523.644 535.297 532.378L548.062 560.597 559.081 583.709C559.484 584.65 560.425 585.188 561.5 585.188 562.575 585.188 563.516 584.65 563.919 583.709L574.938 560.597 587.703 532.378C591.062 523.644 589.987 513.834 584.747 506.175 579.506 498.381 570.772 493.812 561.5 493.812Z" fill="#F2E5D7"/></g></svg>